<svg xmlns="http://www.w3.org/2000/svg" width="203" height="57" fill="none">


<circle cx="24.606" cy="28.501" r="24.606" fill="none"/><g clip-path="url(#a)">

<path fill="#3A6EF2" fill-rule="evenodd" d="M24.363 18.13c-.083-.958.629-1.86 1.71-1.928.806-.055 1.449.314 1.86 1.025.2.35.404.698.608 1.049.322.554.646 1.11.964 1.671.119.205.242.407.365.61.246.403.492.807.702 1.236.602 1.216-.123 2.556-1.477 2.734-.766.109-1.518-.301-1.956-1.04-.28-.478-.557-.96-.834-1.441-.277-.482-.554-.964-.835-1.443-.13-.225-.263-.447-.396-.67a36.891 36.891 0 0 1-.397-.67c-.205-.355-.383-.724-.328-1.12l.014-.014zm4.021 10.293c.082 1.9-1.56 3.609-3.529 3.69-1.942.083-3.72-1.571-3.761-3.553a3.67 3.67 0 0 1 3.584-3.705c1.942-.068 3.638 1.558 3.706 3.568zm-7.112 11.346c.383.656.93 1.039 1.655 1.025l.014.014c.848.027 1.518-.41 1.819-1.135.287-.656.15-1.271-.178-1.86a180.12 180.12 0 0 0-1.463-2.51l-.301-.51-.24-.413a31.307 31.307 0 0 0-.622-1.05c-.438-.67-1.245-.97-2.038-.793-.78.178-1.327.78-1.45 1.586-.082.52.069.97.328 1.408l.662 1.138c.601 1.033 1.204 2.07 1.814 3.1zm11.133-8.667c-1.409.082-2.339-1.504-1.71-2.652.447-.833.915-1.651 1.383-2.47.178-.311.356-.622.532-.934.233-.424.465-.848.712-1.258.451-.779 1.217-1.134 2.051-.957.835.178 1.464.82 1.532 1.695.027.356-.068.766-.232 1.067a225.193 225.193 0 0 1-2.654 4.647c-.355.602-.916.889-1.614.875v-.013zm-19.846.246c-.725 1.312.178 2.87 1.655 2.87l-.014-.013c.725 0 1.313-.342 1.696-1.012a451.69 451.69 0 0 0 2.49-4.36c.164-.287.287-.616.314-.944a1.823 1.823 0 0 0-1.217-1.9c-.862-.3-1.737-.027-2.243.725-.22.335-.424.693-.624 1.046l-.183.32-.505.877c-.46.797-.918 1.59-1.369 2.39zm17.712 1.873c.305 0 .611-.003.918-.006a46.644 46.644 0 0 1 1.845.006c.985.041 1.682.834 1.723 1.846.028.97-.615 1.736-1.587 1.873l-.12.015a1.931 1.931 0 0 1-.262.026h-5.225c-.506 0-.971-.15-1.327-.534-.547-.588-.684-1.285-.397-2.023.288-.738.862-1.175 1.669-1.203a46.644 46.644 0 0 1 1.844-.006c.308.003.614.006.919.006zM14.528 22.367c.192.82.862 1.408 1.71 1.422v.013c.39.006 1.266.002 2.206-.003 1.241-.006 2.591-.012 3.074.003.766.028 1.313-.3 1.723-.915.739-1.094.055-2.652-1.258-2.83-.41-.055-4.254-.055-5.745 0-1.23.04-1.983 1.107-1.71 2.31z" clip-rule="evenodd"/>


</g>


<defs>
<clipPath id="a">
<path fill="blue" d="M12.303 16.197h24.606v24.606H12.303z"/>
</clipPath>
</defs>
</svg>