<svg width="412" height="125" viewBox="0 0 412 125" fill="none" xmlns="http://www.w3.org/2000/svg">
<path d="M0.272728 98V4.90909H31.7273C39.0303 4.90909 45 6.22727 49.6364 8.86363C54.303 11.4697 57.7576 15 60 19.4545C62.2424 23.9091 63.3636 28.8788 63.3636 34.3636C63.3636 39.8485 62.2424 44.8333 60 49.3182C57.7879 53.803 54.3636 57.3788 49.7273 60.0455C45.0909 62.6818 39.1515 64 31.9091 64H9.36364V54H31.5455C36.5455 54 40.5606 53.1364 43.5909 51.4091C46.6212 49.6818 48.8182 47.3485 50.1818 44.4091C51.5758 41.4394 52.2727 38.0909 52.2727 34.3636C52.2727 30.6364 51.5758 27.303 50.1818 24.3636C48.8182 21.4242 46.6061 19.1212 43.5455 17.4545C40.4849 15.7576 36.4242 14.9091 31.3636 14.9091H11.5455V98H0.272728ZM80.0682 98V28.1818H90.4318V38.7273H91.1591C92.4318 35.2727 94.7348 32.4697 98.0682 30.3182C101.402 28.1667 105.159 27.0909 109.341 27.0909C110.129 27.0909 111.114 27.1061 112.295 27.1364C113.477 27.1667 114.371 27.2121 114.977 27.2727V38.1818C114.614 38.0909 113.78 37.9545 112.477 37.7727C111.205 37.5606 109.856 37.4545 108.432 37.4545C105.038 37.4545 102.008 38.1667 99.3409 39.5909C96.7045 40.9848 94.6136 42.9242 93.0682 45.4091C91.553 47.8636 90.7955 50.6667 90.7955 53.8182V98H80.0682ZM154.841 99.4545C148.114 99.4545 142.311 97.9697 137.432 95C132.583 92 128.841 87.8182 126.205 82.4545C123.598 77.0606 122.295 70.7879 122.295 63.6364C122.295 56.4848 123.598 50.1818 126.205 44.7273C128.841 39.2424 132.508 34.9697 137.205 31.9091C141.932 28.8182 147.447 27.2727 153.75 27.2727C157.386 27.2727 160.977 27.8788 164.523 29.0909C168.068 30.303 171.295 32.2727 174.205 35C177.114 37.697 179.432 41.2727 181.159 45.7273C182.886 50.1818 183.75 55.6667 183.75 62.1818V66.7273H129.932V57.4545H172.841C172.841 53.5151 172.053 50 170.477 46.9091C168.932 43.8182 166.72 41.3788 163.841 39.5909C160.992 37.803 157.629 36.9091 153.75 36.9091C149.477 36.9091 145.78 37.9697 142.659 40.0909C139.568 42.1818 137.189 44.9091 135.523 48.2727C133.856 51.6364 133.023 55.2424 133.023 59.0909V65.2727C133.023 70.5455 133.932 75.0152 135.75 78.6818C137.598 82.3182 140.159 85.0909 143.432 87C146.705 88.8788 150.508 89.8182 154.841 89.8182C157.659 89.8182 160.205 89.4242 162.477 88.6364C164.78 87.8182 166.765 86.6061 168.432 85C170.098 83.3636 171.386 81.3333 172.295 78.9091L182.659 81.8182C181.568 85.3333 179.735 88.4242 177.159 91.0909C174.583 93.7273 171.402 95.7879 167.614 97.2727C163.826 98.7273 159.568 99.4545 154.841 99.4545ZM200.068 124.182V28.1818H210.432V39.2727H211.705C212.492 38.0606 213.583 36.5151 214.977 34.6364C216.402 32.7273 218.432 31.0303 221.068 29.5455C223.735 28.0303 227.341 27.2727 231.886 27.2727C237.765 27.2727 242.947 28.7424 247.432 31.6818C251.917 34.6212 255.417 38.7879 257.932 44.1818C260.447 49.5758 261.705 55.9394 261.705 63.2727C261.705 70.6667 260.447 77.0758 257.932 82.5C255.417 87.8939 251.932 92.0758 247.477 95.0455C243.023 97.9848 237.886 99.4545 232.068 99.4545C227.583 99.4545 223.992 98.7121 221.295 97.2273C218.598 95.7121 216.523 94 215.068 92.0909C213.614 90.1515 212.492 88.5455 211.705 87.2727H210.795V124.182H200.068ZM210.614 63.0909C210.614 68.3636 211.386 73.0152 212.932 77.0455C214.477 81.0455 216.735 84.1818 219.705 86.4545C222.674 88.697 226.311 89.8182 230.614 89.8182C235.098 89.8182 238.841 88.6364 241.841 86.2727C244.871 83.8788 247.144 80.6667 248.659 76.6364C250.205 72.5758 250.977 68.0606 250.977 63.0909C250.977 58.1818 250.22 53.7576 248.705 49.8182C247.22 45.8485 244.962 42.7121 241.932 40.4091C238.932 38.0758 235.159 36.9091 230.614 36.9091C226.25 36.9091 222.583 38.0151 219.614 40.2273C216.644 42.4091 214.402 45.4697 212.886 49.4091C211.371 53.3182 210.614 57.8788 210.614 63.0909ZM278.068 98V28.1818H288.795V98H278.068ZM283.523 16.5455C281.432 16.5455 279.629 15.8333 278.114 14.4091C276.629 12.9848 275.886 11.2727 275.886 9.27273C275.886 7.27273 276.629 5.56061 278.114 4.13636C279.629 2.71212 281.432 2 283.523 2C285.614 2 287.402 2.71212 288.886 4.13636C290.402 5.56061 291.159 7.27273 291.159 9.27273C291.159 11.2727 290.402 12.9848 288.886 14.4091C287.402 15.8333 285.614 16.5455 283.523 16.5455ZM339.534 28.1818V37.2727H301.898V28.1818H339.534ZM313.17 98V18.5455C313.17 14.5455 314.11 11.2121 315.989 8.54545C317.867 5.87878 320.307 3.87878 323.307 2.54545C326.307 1.21211 329.473 0.545448 332.807 0.545448C335.443 0.545448 337.595 0.757571 339.261 1.18182C340.928 1.60606 342.17 1.99999 342.989 2.36363L339.898 11.6364C339.352 11.4545 338.595 11.2273 337.625 10.9545C336.686 10.6818 335.443 10.5454 333.898 10.5454C330.352 10.5454 327.792 11.4394 326.216 13.2273C324.67 15.0151 323.898 17.6364 323.898 21.0909V98H313.17ZM361.477 124.182C359.659 124.182 358.038 124.03 356.614 123.727C355.189 123.455 354.205 123.182 353.659 122.909L356.386 113.455C358.992 114.121 361.295 114.364 363.295 114.182C365.295 114 367.068 113.106 368.614 111.5C370.189 109.924 371.629 107.364 372.932 103.818L374.932 98.3636L349.114 28.1818H360.75L380.023 83.8182H380.75L400.023 28.1818H411.659L382.023 108.182C380.689 111.788 379.038 114.773 377.068 117.136C375.098 119.53 372.811 121.303 370.205 122.455C367.629 123.606 364.72 124.182 361.477 124.182Z" fill="white"/>
</svg>
